HIERARCHY
ROOT Hips
{
  OFFSET -331.093 83.8371 -317.828
  CHANNELS 6 Xposition Yposition Zposition Zrotation Xrotation Yrotation
  JOINT LeftUpLeg
  {
    OFFSET 8.64259 1.95398 -2.38835
    CHANNELS 3 Zrotation Xrotation Yrotation
    JOINT LeftLeg
    {
      OFFSET 43.7702 0 0
      CHANNELS 3 Zrotation Xrotation Yrotation
      JOINT LeftFoot
      {
        OFFSET 40.6238 0 0
        CHANNELS 3 Zrotation Xrotation Yrotation
        JOINT LeftToeBase
        {
          OFFSET 12.7242 0 0
          CHANNELS 3 Zrotation Xrotation Yrotation
          End Site
          {
            OFFSET 0 0 0
          }
        }
      }
    }
  }
  JOINT RightUpLeg
  {
    OFFSET -8.2249 1.95398 -2.59336
    CHANNELS 3 Zrotation Xrotation Yrotation
    JOINT RightLeg
    {
      OFFSET 43.5653 0 0
      CHANNELS 3 Zrotation Xrotation Yrotation
      JOINT RightFoot
      {
        OFFSET 40.6238 0 0
        CHANNELS 3 Zrotation Xrotation Yrotation
        JOINT RightToeBase
        {
          OFFSET 12.7242 0 0
          CHANNELS 3 Zrotation Xrotation Yrotation
          End Site
          {
            OFFSET 0 0 0
          }
        }
      }
    }
  }
  JOINT Spine
  {
    OFFSET 0.165834 0.87714 6.61349
    CHANNELS 3 Zrotation Xrotation Yrotation
    JOINT Spine1
    {
      OFFSET 7.38963 1.71661e-005 0
      CHANNELS 3 Zrotation Xrotation Yrotation
      JOINT Spine2
      {
        OFFSET 11.9445 1.14441e-005 0
        CHANNELS 3 Zrotation Xrotation Yrotation
        JOINT Spine3
        {
          OFFSET 14.7254 4.19617e-005 0
          CHANNELS 3 Zrotation Xrotation Yrotation
          JOINT Spine4
          {
            OFFSET 10.9679 0 0
            CHANNELS 3 Zrotation Xrotation Yrotation
            JOINT RightShoulder
            {
              OFFSET 2.46616 -1.6653 3.69651
              CHANNELS 3 Zrotation Xrotation Yrotation
              JOINT RightArm
              {
                OFFSET 13.0012 0 0
                CHANNELS 3 Zrotation Xrotation Yrotation
                JOINT RightForeArm
                {
                  OFFSET 28.7848 1.62311e-005 0
                  CHANNELS 3 Zrotation Xrotation Yrotation
                  JOINT RightHand
                  {
                    OFFSET 26.5688 1.62095e-005 0
                    CHANNELS 3 Zrotation Xrotation Yrotation
                    End Site
                    {
                      OFFSET 0 0 0
                    }
                  }
                }
              }
            }
            JOINT LeftShoulder
            {
              OFFSET 2.38034 -1.29275 -3.7523
              CHANNELS 3 Zrotation Xrotation Yrotation
              JOINT LeftArm
              {
                OFFSET 16.3182 6.07031e-005 0
                CHANNELS 3 Zrotation Xrotation Yrotation
                JOINT LeftForeArm
                {
                  OFFSET 27.0901 0 0
                  CHANNELS 3 Zrotation Xrotation Yrotation
                  JOINT LeftHand
                  {
                    OFFSET 24.5451 1.51738e-005 0
                    CHANNELS 3 Zrotation Xrotation Yrotation
                    End Site
                    {
                      OFFSET 0 0 0
                    }
                  }
                }
              }
            }
            JOINT Neck
            {
              OFFSET 5.0226 -0.0266342 0
              CHANNELS 3 Zrotation Xrotation Yrotation
              JOINT Head
              {
                OFFSET 6.69364 2.86102e-005 0
                CHANNELS 3 Zrotation Xrotation Yrotation
                End Site
                {
                  OFFSET 0 0 0
                }
              }
            }
          }
        }
      }
    }
  }
}
MOTION
Frames:	9
Frame Time:	0.0416667
-156.024 89.9494 -143.718 96.2038 -53.774 90.3475 -175.137 33.2809 83.7153 -43.5845 18.8036 -3.01246 60.9221 2.15709 6.84051 29.5528 -0.130267 -3.05441 178.684 6.01951 83.4189 -80.7646 0.73838 -6.16584 41.2156 6.59537 5.69729 22.319 -0.539821 -10.3358 0.537597 7.28563 -88.7438 12.2769 1.66387 2.31926 0.605039 1.76433 2.24381 -21.9164 0.890229 2.71185 -1.90376 0.890244 2.71184 89.3289 -40.4126 -104.05 36.8915 -23.0909 8.83259 -10.4645 -16.2986 -45.1104 -0.0552917 -0.0344863 3.04329 -98.3993 -50.3027 66.9602 -19.8331 1.3953 1.83713 2.66124 2.94459 -38.4623 13.2329 0.892857 2.8713 6.97766 -3.62277 -1.92894 -5.73932 -3.04854 -3.75893 
-149.358 94.1255 -136.901 95.7686 -55.537 94.2089 -175.148 25.5849 87.9513 -40.1815 20.7372 -2.29764 59.8522 1.18281 6.18022 36.534 5.79412 -0.0799874 -177.813 23.2208 90.2177 -96.953 5.26246 -4.01904 44.2414 4.05186 3.17428 23.8371 -0.520793 -8.1172 0.291036 7.28068 -89.2519 12.3049 0.933277 1.38821 0.633579 0.993475 1.34578 -21.8965 0.47297 1.60446 -1.88388 0.472992 1.60447 89.022 -40.6808 -104.489 37.252 -24.255 14.9556 -15.2004 -21.768 -47.3457 2.11282 0.00214472 2.7225 -96.9304 -49.1452 68.7114 -19.9337 -0.345827 -2.52964 10.0424 4.51719 -56.5701 17.7303 1.85176 6.55537 6.64677 -1.42386 -0.913643 -4.78922 -1.12558 -3.76164 
-142.581 99.7044 -130.435 102.564 -54.1509 102.405 -176.592 12.5013 90.2561 -31.7235 21.0289 0.121956 51.1538 -6.01234 -0.410638 35.4057 5.2944 1.31119 176.678 32.9566 95.1146 -104.211 11.4351 -2.86907 52.6543 0.697948 0.252205 28.5904 -0.907363 -7.93177 -0.0977668 7.82173 -89.665 11.23 -0.0386651 0.672557 -0.441182 -0.00902055 0.673614 -22.9749 -0.239012 0.62985 -2.96225 -0.238993 0.629856 88.8692 -40.5443 -104.791 37.5707 -22.5337 21.3418 -13.2341 -19.9719 -46.273 -3.52608 -0.329309 1.76082 -95.0351 -47.2589 70.9272 -19.9143 -0.958352 -3.17555 11.1845 0.526203 -72.7651 23.3307 2.36927 6.35856 3.07201 0.184814 -0.11377 -1.58877 0.194507 -1.86688 
-136.422 104.246 -123.633 103.93 -48.9566 105.188 -177.271 8.82228 92.1878 -32.2344 21.8544 1.51574 44.7229 -10.6218 -7.68684 20.7747 -4.33407 12.4562 168.726 40.5209 100.266 -106.223 4.80313 -1.78532 56.2578 0.567807 -0.155638 32.9565 -0.919277 -5.39606 -0.605498 8.05179 -89.9409 10.7713 -1.1785 0.227329 -0.899141 -1.16736 0.278983 -23.4385 -1.19233 -0.137417 -3.42587 -1.19234 -0.137415 89.5219 -40.2295 -103.776 38.9573 -17.9791 29.3952 -10.8007 -14.2603 -47.1101 -3.53796 -0.271903 0.150336 -92.0696 -43.1543 74.294 -20.0342 2.31541 -5.63112 12.1898 -3.07353 -83.2239 25.0953 2.64028 6.79978 -3.58341 0.203304 -0.384585 3.42092 0.186001 -1.10535 
-130.264 106.964 -117.194 105.413 -46.3314 107.054 -175.916 7.71927 93.1294 -29.1154 20.4635 0.874967 47.5102 -8.87639 -6.51172 25.4392 -0.235722 12.0276 167.703 45.2411 102.596 -103.408 -1.59925 -1.28895 56.8809 0.990578 0.00354661 36.0122 -0.98549 -4.58584 -0.718267 8.13867 -90.0863 10.5969 -1.4701 -0.0388027 -1.07322 -1.47039 0.0259446 -23.6145 -1.39049 -0.478926 -3.6019 -1.39048 -0.47893 90.6538 -37.9258 -102.494 41.2573 -13.2964 37.4407 -8.58228 -9.40957 -48.454 -1.46952 -0.153337 -1.87133 -89.3353 -38.8135 77.5904 -19.5112 4.29833 -9.27968 15.0689 -5.50952 -91.0942 16.0974 1.49986 5.29241 -8.16678 -0.349567 -1.39169 6.54267 -0.310546 -0.809277 
-124.248 107.48 -110.553 105.888 -43.8265 107.12 -174.575 2.26419 93.4179 -8.42788 16.9473 -0.354283 44.1866 -10.0144 -8.54964 35.6273 9.596 13.0112 168.624 46.7341 102.579 -97.5795 -0.998288 -0.907044 60.698 -0.565194 -0.965567 29.6471 -1.32928 -10.4077 -0.840396 8.20719 -90.0102 10.4613 -1.67879 0.128288 -1.20854 -1.67152 0.202066 -23.7521 -1.63972 -0.382328 -3.73947 -1.63973 -0.382334 90.8373 -37.7672 -102.216 41.2089 -10.8109 42.6819 -8.54056 -8.82269 -48.4189 -0.782509 -0.121373 -0.67263 -88.3368 -36.353 78.6686 -14.2534 3.82862 -14.0609 12.2395 -7.20919 -98.2269 14.0076 1.17296 4.39213 -9.68208 -0.984056 -3.07367 6.65898 -0.904401 -1.29641 
-117.896 104.977 -103.921 104.355 -40.6001 106.347 -175.367 6.76465 93.367 -7.35273 11.3713 -0.414261 47.5104 -8.97967 -5.84895 33.5361 8.58052 15.8954 169.378 46.7572 100.858 -88.4392 2.16677 -0.202354 62.5199 -1.2845 -1.24116 35.4827 -1.82477 -9.56293 -1.08745 8.11078 -90.0676 10.6548 -2.19686 0.0654525 -1.01427 -2.19183 0.162116 -23.5636 -2.1149 -0.598118 -3.55099 -2.1149 -0.59813 90.8785 -37.9786 -102.082 39.9483 -10.5019 45.2627 -9.05507 -11.0697 -45.3971 -1.41769 -0.163583 -1.04248 -88.5578 -36.9798 78.4446 -7.63755 -0.209148 -18.7953 9.87609 -7.40081 -103.33 12.4727 0.993155 3.85215 -10.8259 -1.49611 -4.43883 6.32805 -1.31506 -0.391628 
-111.643 99.4072 -97.5229 105.449 -37.8835 108.654 -173.171 10.7622 94.9577 -18.7734 8.37409 -1.79851 55.0507 -3.86396 -2.09319 27.089 0.592249 8.00502 170.4 43.649 99.9215 -76.1567 2.99458 0.847746 65.2106 -2.28356 -1.68563 39.2577 -2.02353 -8.6603 -1.2 8.19469 -90.1961 10.4826 -2.48022 -0.171169 -1.18596 -2.48533 -0.0617835 -23.738 -2.31404 -0.90906 -3.72533 -2.31404 -0.909061 89.9666 -39.0241 -103.364 38.0924 -10.9008 46.8806 -8.79393 -13.3713 -42.2729 -1.2373 -0.16365 0.436622 -88.4742 -37.4822 78.719 -3.66218 -6.11429 -23.6302 8.33134 -6.36747 -105.524 16.661 1.56529 5.51209 -10.5009 -1.94778 -5.32077 5.07615 -1.70236 -0.164013 
-106.021 93.9084 -91.5825 106.574 -36.2768 107.099 -172.37 18.4101 91.8107 -45.8966 8.27188 -1.43035 65.4453 4.15968 5.29767 34.9392 4.54028 -0.462838 173.964 39.0228 95.5637 -57.7053 3.17499 0.293037 67.0928 -3.27479 -2.09084 41.4598 -2.85814 -11.2732 -1.20203 8.40493 -89.83 10.0746 -2.31787 0.533095 -1.59442 -2.29217 0.634638 -24.1466 -2.37087 -0.188566 -4.13395 -2.37088 -0.18857 89.613 -41.1802 -103.343 35.7306 -11.5441 42.6355 -8.26281 -17.5071 -36.8056 0.311191 -0.0946263 1.27851 -89.0934 -39.2056 78.0995 -1.6105 -10.8807 -27.7937 8.17842 -5.17732 -104.395 16.8928 1.43929 4.63079 -5.28314 -3.3411 -7.14462 0.411377 -2.64844 -0.945667 
